<svg width="38" height="49" viewBox="0 0 38 49" fill="none" xmlns="http://www.w3.org/2000/svg">
<path d="M34.2052 49H2.21059C0.991082 49 0 47.9015 0 46.55V9.00371C0 7.65213 0.991082 6.55371 2.21059 6.55371H34.2089V49H34.2052Z" fill="#546E7A"/>
<path d="M36.8505 13.6997H35.0084C34.3968 13.6997 33.9031 13.1525 33.9031 12.4747V7.17861C33.9031 6.50078 34.3968 5.95361 35.0084 5.95361H36.8505C37.4621 5.95361 37.9558 6.50078 37.9558 7.17861V12.4747C37.9558 13.1525 37.4621 13.6997 36.8505 13.6997Z" fill="#EC4431"/>
<path d="M36.8505 21.9682H35.0084C34.3968 21.9682 33.9031 21.4211 33.9031 20.7432V15.4472C33.9031 14.7693 34.3968 14.2222 35.0084 14.2222H36.8505C37.4621 14.2222 37.9558 14.7693 37.9558 15.4472V20.7432C37.9558 21.417 37.4621 21.9682 36.8505 21.9682Z" fill="#FBBE00"/>
<path d="M36.8505 30.2331H35.0084C34.3968 30.2331 33.9031 29.686 33.9031 29.0081V23.7121C33.9031 23.0342 34.3968 22.4871 35.0084 22.4871H36.8505C37.4621 22.4871 37.9558 23.0342 37.9558 23.7121V29.0081C37.9558 29.686 37.4621 30.2331 36.8505 30.2331Z" fill="#2CA94F"/>
<path d="M36.8505 38.5017H35.0084C34.3968 38.5017 33.9031 37.9545 33.9031 37.2767V31.9806C33.9031 31.3028 34.3968 30.7556 35.0084 30.7556H36.8505C37.4621 30.7556 37.9558 31.3028 37.9558 31.9806V37.2767C37.9558 37.9504 37.4621 38.5017 36.8505 38.5017Z" fill="#4480F7"/>
<path d="M35.3879 43.7488H2.21059C0.991081 43.7488 0 42.6504 0 41.2988V2.45C0 1.09842 0.991081 0 2.21059 0H35.3879V43.7488Z" fill="url(#paint0_linear_11_873)"/>
<path opacity="0.2" d="M34.3268 1.225V5.9535C34.3268 6.63133 34.8205 7.1785 35.4321 7.1785H36.8174C36.8616 7.1785 36.8947 7.21933 36.8947 7.26425V12.3847C36.8947 12.4337 36.8579 12.4705 36.8174 12.4705H35.4321C34.8205 12.4705 34.3268 13.0177 34.3268 13.6955V14.2182C34.3268 14.896 34.8205 15.4432 35.4321 15.4432H36.8174C36.8616 15.4432 36.8947 15.484 36.8947 15.5289V20.6494C36.8947 20.6984 36.8579 20.7352 36.8174 20.7352H35.4321C34.8205 20.7352 34.3268 21.2823 34.3268 21.9602V22.4828C34.3268 23.1607 34.8205 23.7078 35.4321 23.7078H36.8174C36.8616 23.7078 36.8947 23.7487 36.8947 23.7936V28.9141C36.8947 28.9631 36.8579 28.9998 36.8174 28.9998H35.4321C34.8205 28.9998 34.3268 29.547 34.3268 30.2248V30.7475C34.3268 31.4253 34.8205 31.9725 35.4321 31.9725H36.8174C36.8616 31.9725 36.8947 32.0133 36.8947 32.0582V37.1787C36.8947 37.2277 36.8579 37.2645 36.8174 37.2645H35.4321C34.8205 37.2645 34.3268 37.8117 34.3268 38.4895V42.5157H34.2531C33.6415 42.5157 33.1478 43.0628 33.1478 43.7407V47.775H2.41321C1.71687 47.775 1.14948 47.1462 1.14948 46.3744V2.62558C1.14948 1.85383 1.71687 1.225 2.41321 1.225H34.3268ZM35.4321 0H2.41321C1.10527 0 0.0441895 1.176 0.0441895 2.62558V46.3744C0.0441895 47.824 1.10527 49 2.41321 49H34.2531V43.7488H35.4321V38.5017H36.8174C37.4732 38.5017 38 37.9137 38 37.191V32.0664C38 31.3396 37.4695 30.7557 36.8174 30.7557H35.4321V30.233H36.8174C37.4732 30.233 38 29.645 38 28.9222V23.8017C38 23.0749 37.4695 22.491 36.8174 22.491H35.4321V21.9683H36.8174C37.4732 21.9683 38 21.3803 38 20.6576V15.533C38 14.8062 37.4695 14.2222 36.8174 14.2222H35.4321V13.6996H36.8174C37.4732 13.6996 38 13.1116 38 12.3888V7.26833C38 6.5415 37.4695 5.95758 36.8174 5.95758H35.4321V0Z" fill="#424242"/>
<path d="M26.1328 7.08057H9.11867C8.73918 7.08057 8.48865 7.3664 8.48865 7.79515V18.5343C8.48865 18.9631 8.73918 19.2489 9.11867 19.2489H26.1328C26.5123 19.2489 26.7629 18.9631 26.7629 18.5343V7.79515C26.7629 7.3664 26.5123 7.08057 26.1328 7.08057ZM25.5028 17.8197H9.74868V8.51382H25.5028V17.8197Z" fill="#546E7A"/>
<path d="M14.7926 12.8095H20.4627C20.8422 12.8095 21.0927 12.5237 21.0927 12.095C21.0927 11.6662 20.8422 11.3804 20.4627 11.3804H14.7926C14.4131 11.3804 14.1625 11.6662 14.1625 12.095C14.1625 12.5196 14.4131 12.8095 14.7926 12.8095Z" fill="#546E7A"/>
<path d="M12.9025 15.6718H22.3528C22.7323 15.6718 22.9828 15.386 22.9828 14.9573C22.9828 14.5285 22.7323 14.2427 22.3528 14.2427H12.9025C12.5231 14.2427 12.2725 14.5285 12.2725 14.9573C12.2725 15.386 12.5231 15.6718 12.9025 15.6718Z" fill="#546E7A"/>
<path fill-rule="evenodd" clip-rule="evenodd" d="M28.5368 43.7488V0H32.5051V43.7488H28.5368Z" fill="#424242"/>
<path d="M32.6283 47.6893H2.80742C1.89739 47.6893 1.14948 46.8603 1.14948 45.8518V45.5904C1.14948 44.5818 1.89371 43.7529 2.80742 43.7529H32.6283V47.6893Z" fill="url(#paint1_linear_11_873)"/>
<mask id="mask0_11_873" style="mask-type:alpha" maskUnits="userSpaceOnUse" x="0" y="0" width="36" height="44">
<path d="M35.3879 43.7488H2.21059C0.991081 43.7488 0 42.6504 0 41.2988V2.45C0 1.09842 0.991081 0 2.21059 0H35.3879V43.7488Z" fill="white"/>
</mask>
<g mask="url(#mask0_11_873)">
<path d="M-2.11108 -1.75171H2.62695V50.7477H-2.11108V-1.75171Z" fill="#546E7A"/>
</g>
<defs>
<linearGradient id="paint0_linear_11_873" x1="17.6928" y1="0.18228" x2="17.6928" y2="43.8591" gradientUnits="userSpaceOnUse">
<stop offset="0.0087699" stop-color="#B0BEC5"/>
<stop offset="1" stop-color="#78909C"/>
</linearGradient>
<linearGradient id="paint1_linear_11_873" x1="1.14837" y1="45.717" x2="32.6283" y2="45.717" gradientUnits="userSpaceOnUse">
<stop offset="0.0091529" stop-color="#BDBDBD"/>
<stop offset="1" stop-color="white"/>
</linearGradient>
</defs>
</svg>
